<svg width="106" height="106" viewBox="0 0 106 106" fill="none" xmlns="http://www.w3.org/2000/svg">
<mask id="path-1-inside-1_27671_435" fill="white">
<path d="M106 53C106 67.0565 100.416 80.5372 90.4767 90.4767C80.5372 100.416 67.0565 106 53 106C38.9435 106 25.4628 100.416 15.5233 90.4767C5.58392 80.5372 2.12247e-06 67.0565 0 53L53 53H106Z"/>
</mask>
<path d="M106 53C106 67.0565 100.416 80.5372 90.4767 90.4767C80.5372 100.416 67.0565 106 53 106C38.9435 106 25.4628 100.416 15.5233 90.4767C5.58392 80.5372 2.12247e-06 67.0565 0 53L53 53H106Z" fill="white" stroke="#333333" stroke-width="8" mask="url(#path-1-inside-1_27671_435)"/>
</svg>
